<svg width="31" height="24" viewBox="0 0 31 24" fill="none" xmlns="http://www.w3.org/2000/svg">
<g id="kaizen-symbol-blue" clip-path="url(#clip0_3593_7416)">
<g id="Layer 2">
<g id="Layer 1">
<path id="Vector" d="M25.6818 2.71626L19.0683 9.01279L14.9291 12.9519L9.46404 18.1577C9.36659 18.2503 9.26052 18.3335 9.14722 18.4064C7.84828 19.2406 6.01947 18.3454 6.01947 16.7136V10.9182C6.01966 10.5568 6.11872 10.2021 6.3062 9.89161C6.49367 9.58113 6.7626 9.32639 7.08458 9.15429C7.40656 8.98218 7.76964 8.89911 8.13548 8.91384C8.50132 8.92857 8.85635 9.04056 9.16306 9.23797L14.019 12.292L18.1566 8.35131L6.05749 0.634875C3.4509 -1.04383 0 0.802981 0 3.87345V20.9319C0 22.8311 1.62605 24.0774 3.27507 23.9961C4.01953 23.9585 4.72412 23.6524 5.25516 23.136L15.5405 13.3452L25.3531 19.6636C27.6349 21.132 30.6597 19.5268 30.6755 16.8371L30.75 4.86019C30.7666 2.24556 27.5874 0.90228 25.6818 2.71626ZM26.5269 11.5664C26.526 11.7855 26.4653 12.0004 26.3511 12.1883C26.237 12.3763 26.0737 12.5303 25.8783 12.6344C25.683 12.7384 25.4628 12.7885 25.241 12.7795C25.0192 12.7704 24.804 12.7025 24.6181 12.5829L19.6797 9.40295L24.4454 4.86801C25.2287 4.12131 26.538 4.67175 26.5364 5.74763L26.5269 11.5664Z" fill="#000796"/>
</g>
</g>
</g>
<defs>
<clipPath id="clip0_3593_7416">
<rect width="30.75" height="24" fill="white"/>
</clipPath>
</defs>
</svg>
